<svg width="45" height="45" viewBox="0 0 45 45" fill="none" xmlns="http://www.w3.org/2000/svg">
<path d="M13.125 5.625H39.375V31.875H13.125V5.625Z" fill="white"/>
<path d="M37.5 3.75H15C12.9375 3.75 11.25 5.4375 11.25 7.5V30C11.25 32.0625 12.9375 33.75 15 33.75H37.5C39.5625 33.75 41.25 32.0625 41.25 30V7.5C41.25 5.4375 39.5625 3.75 37.5 3.75ZM33.75 13.125H28.125V23.4375C28.125 26.025 26.025 28.125 23.4375 28.125C20.85 28.125 18.75 26.025 18.75 23.4375C18.75 20.85 20.85 18.75 23.4375 18.75C24.5062 18.75 25.4625 19.1062 26.25 19.7062V9.375H33.75V13.125ZM7.5 11.25H3.75V37.5C3.75 39.5625 5.4375 41.25 7.5 41.25H33.75V37.5H7.5V11.25Z" fill="#4447E2"/>
</svg>
